HIERARCHY
ROOT Hips
{
	OFFSET 0.00000 0.00000 0.00000
	CHANNELS 6 Xposition Yposition Zposition Zrotation Yrotation Xrotation 
	JOINT LHipJoint
	{
		OFFSET 0 0 0
		CHANNELS 3 Zrotation Yrotation Xrotation
		JOINT LeftUpLeg
		{
			OFFSET 1.65412 -1.54119 0.76744
			CHANNELS 3 Zrotation Yrotation Xrotation
			JOINT LeftLeg
			{
				OFFSET 2.19550 -6.03209 0.00000
				CHANNELS 3 Zrotation Yrotation Xrotation
				JOINT LeftFoot
				{
					OFFSET 2.38814 -6.56138 0.00000
					CHANNELS 3 Zrotation Yrotation Xrotation
					JOINT LeftToeBase
					{
						OFFSET 0.17337 -0.47632 1.75875
						CHANNELS 3 Zrotation Yrotation Xrotation
						End Site
						{
							OFFSET 0.00000 -0.00000 0.92050
						}
					}
				}
			}
		}
	}
	JOINT RHipJoint
	{
		OFFSET 0 0 0
		CHANNELS 3 Zrotation Yrotation Xrotation
		JOINT RightUpLeg
		{
			OFFSET -1.40291 -1.54119 0.76744
			CHANNELS 3 Zrotation Yrotation Xrotation
			JOINT RightLeg
			{
				OFFSET -2.22156 -6.10370 0.00000
				CHANNELS 3 Zrotation Yrotation Xrotation
				JOINT RightFoot
				{
					OFFSET -2.46840 -6.78188 0.00000
					CHANNELS 3 Zrotation Yrotation Xrotation
					JOINT RightToeBase
					{
						OFFSET -0.15659 -0.43024 1.84117
						CHANNELS 3 Zrotation Yrotation Xrotation
						End Site
						{
							OFFSET -0.00000 -0.00000 0.95587
						}
					}
				}
			}
		}
	}
	JOINT LowerBack
	{
		OFFSET 0 0 0
		CHANNELS 3 Zrotation Yrotation Xrotation
		JOINT Spine
		{
			OFFSET -0.01936 1.82120 -0.32061
			CHANNELS 3 Zrotation Yrotation Xrotation
			JOINT Spine1
			{
				OFFSET -0.00532 1.85767 -0.00071
				CHANNELS 3 Zrotation Yrotation Xrotation
				JOINT Neck
				{
					OFFSET 0 0 0
					CHANNELS 3 Zrotation Yrotation Xrotation
					JOINT Neck1
					{
						OFFSET -0.10687 1.58194 0.10810
						CHANNELS 3 Zrotation Yrotation Xrotation
						JOINT Head
						{
							OFFSET 0.15346 1.57382 -0.25612
							CHANNELS 3 Zrotation Yrotation Xrotation
							End Site
							{
								OFFSET 0.05334 1.61251 -0.10513
							}
						}
					}
				}
				JOINT LeftShoulder
				{
					OFFSET 0 0 0
					CHANNELS 3 Zrotation Yrotation Xrotation
					JOINT LeftArm
					{
						OFFSET 2.85758 0.89498 -0.01485
						CHANNELS 3 Zrotation Yrotation Xrotation
						JOINT LeftForeArm
						{
							OFFSET 4.79185 -0.00000 -0.00000
							CHANNELS 3 Zrotation Yrotation Xrotation
							JOINT LeftHand
							{
								OFFSET 2.65553 -0.00000 0.00000
								CHANNELS 3 Zrotation Yrotation Xrotation
								JOINT LeftFingerBase
								{
									OFFSET 0 0 0
									CHANNELS 3 Zrotation Yrotation Xrotation
									JOINT LeftHandIndex1
									{
										OFFSET 0.74390 -0.00000 0.00000
										CHANNELS 3 Zrotation Yrotation Xrotation
										End Site
										{
											OFFSET 0.59975 -0.00000 0.00000
										}
									}
								}
								JOINT LThumb
								{
									OFFSET 0 0 0
									CHANNELS 3 Zrotation Yrotation Xrotation
									End Site
									{
										OFFSET 0.60891 -0.00000 0.60891
									}
								}
							}
						}
					}
				}
				JOINT RightShoulder
				{
					OFFSET 0 0 0
					CHANNELS 3 Zrotation Yrotation Xrotation
					JOINT RightArm
					{
						OFFSET -2.93906 0.88031 0.02490
						CHANNELS 3 Zrotation Yrotation Xrotation
						JOINT RightForeArm
						{
							OFFSET -4.77254 -0.00000 -0.00000
							CHANNELS 3 Zrotation Yrotation Xrotation
							JOINT RightHand
							{
								OFFSET -2.75995 -0.00000 -0.00000
								CHANNELS 3 Zrotation Yrotation Xrotation
								JOINT RightFingerBase
								{
									OFFSET 0 0 0
									CHANNELS 3 Zrotation Yrotation Xrotation
									JOINT RightHandIndex1
									{
										OFFSET -0.70162 -0.00000 0.00000
										CHANNELS 3 Zrotation Yrotation Xrotation
										End Site
										{
											OFFSET -0.56566 -0.00000 0.00000
										}
									}
								}
								JOINT RThumb
								{
									OFFSET 0 0 0
									CHANNELS 3 Zrotation Yrotation Xrotation
									End Site
									{
										OFFSET -0.57430 -0.00000 0.57430
									}
								}
							}
						}
					}
				}
			}
		}
	}
}
MOTION
Frames: 5
Frame Time: .0083333
0.2874 15.9445 -0.1302 -0.8110 -1.5870 -1.2741 0.0000 0.0000 0.0000 -17.4664 -10.9106 1.7230 1.1735 6.8759 19.3482 0.4905 4.2630 -15.4797 0.4300 -4.2082 -11.6631 0.0000 0.0000 0.0000 18.4691 12.7252 -0.3302 -1.6819 -8.1695 23.2300 -0.4802 -6.5887 -17.1420 -0.2882 3.4522 -9.5404 -1.7046 1.9134 16.1252 -0.4439 2.1604 -2.0451 -0.0740 1.1104 -11.3849 -15.1314 -12.0813 -13.3459 18.5719 -17.4769 16.2192 6.4085 -7.5101 10.4931 0.0000 -0.0000 0.0000 -82.4295 5.7976 52.3112 13.2335 -21.6284 -2.5387 -0.0000 0.0000 -3.9275 8.0990 16.1985 2.2733 -7.1250 0.0000 -0.0000 -18.2915 45.5021 -0.2346 0.0000 -0.0000 0.0000 67.2062 58.2628 69.6790 -38.9306 47.4234 -17.6477 0.0000 0.0000 23.8425 -12.5905 8.8840 -1.9755 7.1250 -0.0000 -0.0000 10.2819 -20.9416 6.0239
0.2880 15.9464 -0.1358 -0.9248 -1.4884 -1.1929 0.0000 0.0000 0.0000 -17.2854 -10.9001 1.5418 1.1758 6.8824 19.3674 0.4866 4.1128 -15.3278 0.3986 -4.0534 -11.2269 0.0000 0.0000 0.0000 18.6081 12.8233 -0.3552 -1.6754 -8.1545 23.1842 -0.4636 -6.8210 -17.1425 -0.2902 3.4642 -9.5740 -1.5671 1.8425 16.1908 -0.3935 2.0972 -2.1164 -0.0841 1.0739 -11.4991 -15.0245 -12.0433 -13.4228 18.3917 -17.4164 16.3667 6.3373 -7.4823 10.5164 -0.0000 -0.0000 0.0000 -82.4338 5.9302 51.9937 13.1782 -21.5477 -2.5183 -0.0000 0.0000 -3.6858 7.9727 16.1688 2.2334 -7.1250 0.0000 -0.0000 -18.3934 45.4584 -0.2155 -0.0000 -0.0000 0.0000 67.2421 58.3037 67.7436 -39.1941 47.5851 -17.8419 0.0000 0.0000 22.8320 -12.6029 8.3770 -1.8656 7.1250 -0.0000 -0.0000 10.2966 -21.4515 5.9119
0.2919 15.9485 -0.1345 -0.8823 -1.3938 -1.1411 0.0000 0.0000 0.0000 -17.3377 -10.9487 1.4889 1.1751 6.8805 19.3620 0.4812 4.0804 -15.2370 0.3854 -3.9869 -11.0398 0.0000 0.0000 0.0000 18.5448 12.8226 -0.3553 -1.6680 -8.1374 23.1321 -0.4531 -6.9514 -17.1300 -0.3166 3.6172 -10.0020 -1.5102 1.7764 16.1630 -0.3884 2.0216 -2.1459 -0.0909 1.0350 -11.5128 -15.0073 -12.0029 -13.4324 18.2604 -17.3367 16.4222 6.3029 -7.4541 10.5053 -0.0000 0.0000 0.0000 -82.4685 6.0572 51.7879 13.1407 -21.4931 -2.5046 -0.0000 0.0000 -3.8116 7.7969 16.1559 2.1819 -7.1250 0.0000 -0.0000 -18.5453 45.4252 -0.2016 -0.0000 0.0000 0.0000 67.2964 58.4267 65.6841 -39.3187 47.6610 -17.9340 0.0000 0.0000 21.8025 -12.6133 8.1708 -1.8216 7.1250 -0.0000 -0.0000 10.2992 -21.6587 5.8642
0.2957 15.9510 -0.1336 -0.8048 -1.2938 -1.0670 0.0000 0.0000 0.0000 -17.4297 -11.0354 1.4542 1.1682 6.8609 19.3038 0.4787 4.0673 -15.1958 0.3820 -3.9695 -10.9907 0.0000 0.0000 0.0000 18.4342 12.8076 -0.3887 -1.6599 -8.1186 23.0748 -0.4466 -7.0439 -17.1333 -0.3307 3.6959 -10.2226 -1.4839 1.7384 16.1162 -0.4098 1.9744 -2.1942 -0.1166 1.0105 -11.5375 -15.0034 -11.9815 -13.3984 18.1454 -17.2945 16.4960 6.2715 -7.4444 10.5029 -0.0000 0.0000 0.0000 -82.4588 6.2570 51.7349 13.1715 -21.5379 -2.5159 -0.0000 0.0000 -4.1539 7.7055 16.2686 2.1707 -7.1250 0.0000 -0.0000 -18.6676 45.5214 -0.2490 -0.0000 0.0000 0.0000 67.2183 58.5209 63.3466 -39.4206 47.7229 -18.0094 0.0000 0.0000 20.6688 -12.7519 8.4330 -1.9009 7.1250 -0.0000 -0.0000 10.1870 -21.3892 5.8616
0.2993 15.9533 -0.1331 -0.8037 -1.2285 -1.0169 0.0000 0.0000 0.0000 -17.4242 -11.0058 1.4329 1.1562 6.8269 19.2034 0.4745 4.0362 -15.1197 0.4095 -4.1081 -11.3810 0.0000 0.0000 0.0000 18.4256 12.8194 -0.3973 -1.6550 -8.1072 23.0402 -0.4442 -7.1319 -17.1827 -0.3259 3.6695 -10.1486 -1.4174 1.7100 16.0795 -0.4028 1.9513 -2.2284 -0.1402 0.9957 -11.5521 -14.9485 -11.9469 -13.3439 18.0159 -17.2401 16.5517 6.2296 -7.4290 10.4813 -0.0000 -0.0000 0.0000 -82.4223 6.4087 51.8527 13.1989 -21.5779 -2.5260 -0.0000 0.0000 -4.5401 7.7519 16.3845 2.1990 -7.1250 0.0000 -0.0000 -18.6685 45.6372 -0.3043 -0.0000 -0.0000 0.0000 67.1240 58.6488 60.9327 -39.5474 47.7995 -18.1033 0.0000 0.0000 19.2262 -12.9777 8.6323 -1.9811 7.1250 -0.0000 -0.0000 10.0159 -21.1790 5.8086
